<?xml version="1.0" encoding="UTF-8"?><svg id="Warstwa_1" xmlns="http://www.w3.org/2000/svg" viewBox="0 0 361 140"><defs><style>.cls-1{fill:#fff;}.cls-2{fill:#4e4d4d;}.cls-3{fill:#981915;}</style></defs><path class="cls-3" d="M326.22,112h-70.5c-3.74,0-6.78-4.18-6.78-9.34V37.34c0-5.16,3.03-9.34,6.78-9.34h70.5c3.74,0,6.78,4.18,6.78,9.34V102.66c0,5.16-3.03,9.34-6.78,9.34Z"/><path class="cls-2" d="M28,99.33l12.82-50.37c.77-2.91,1.83-5.15,3.18-6.73,1.35-1.58,3.66-2.37,6.94-2.37,2.95,0,5.14,.72,6.55,2.18,1.41,1.45,2.54,3.76,3.37,6.92l13.11,50.37h-8l-4.15-16.28h-24.1l-3.95,16.28h-5.78Zm10.99-20.76h21.5l-6.36-25.77c-.32-1.28-.74-2.41-1.26-3.4-.51-.99-1.54-1.48-3.08-1.48-1.73,0-2.87,.51-3.42,1.54-.55,1.03-.95,2.14-1.21,3.33l-6.17,25.77Z"/><path class="cls-3" d="M108.3,99.59h-11.52c-3.25,0-5.95-.02-8.1-.06-2.15-.05-3.9-.11-5.25-.19V46.27c0-2.48,.4-4.06,1.2-4.75,.8-.68,1.91-1.06,3.33-1.15,1.54,0,2.99-.02,4.34-.06,1.35-.04,2.6-.08,3.76-.13,1.16-.04,2.31-.06,3.47-.06h3.66c1.48,0,2.99,.02,4.53,.06,1.54,.05,3.02,.09,4.44,.13,1.41,.04,2.54,.1,3.37,.19,3.6,.34,6.22,1.68,7.86,4.04,1.64,2.35,2.46,5.75,2.46,10.19,0,3.33-.4,6-1.2,8.01-.8,2.01-1.82,3.44-3.04,4.29s-2.41,1.37-3.57,1.54c1.16,0,2.29,.15,3.42,.45,1.13,.3,2.15,.94,3.09,1.92,.93,.99,1.69,2.44,2.26,4.36,.58,1.92,.87,4.51,.87,7.76,0,3.93-.55,7.03-1.64,9.29-1.09,2.26-2.54,3.91-4.34,4.93-1.8,1.02-3.86,1.66-6.17,1.92-2.31,.26-4.72,.39-7.23,.39Zm-1.93-5.13c1.73,0,3.42-.08,5.06-.26,1.64-.17,3.12-.59,4.44-1.28,1.31-.68,2.36-1.84,3.13-3.46,.77-1.62,1.16-3.89,1.16-6.8,0-4.18-.69-7.07-2.07-8.65-1.38-1.58-4.09-2.37-8.15-2.37h-15.04c-.84,0-1.38-.43-1.64-1.28-.26-.86-.39-2.14-.39-3.84h16.78c1.54,0,2.97-.26,4.29-.77s2.39-1.6,3.23-3.27c.83-1.66,1.25-4.12,1.25-7.37,0-2.99-.51-5.32-1.54-6.98-1.03-1.67-2.7-2.63-5.01-2.88-1.29-.17-2.7-.28-4.24-.32-1.55-.04-3.06-.06-4.53-.06h-5.44c-1.7,0-3.13,.05-4.29,.13-.71,0-1.3,.28-1.78,.83-.48,.55-.73,1.47-.73,2.75v45.63c.45,0,1.04,.02,1.78,.06,.74,.05,1.67,.09,2.8,.13,1.12,.04,2.57,.06,4.34,.06h6.6Z"/><path class="cls-2" d="M141.06,99.33V44.47c0-1.53,.16-2.6,.48-3.2,.32-.59,1.03-.9,2.12-.9h38.27v5.64h-33.45v19.62h30.65v5.64h-30.65v22.43h33.45v5.64h-40.87Z"/><path class="cls-2" d="M200.93,40.37v53.33h29.59v5.64h-36.92V44.6c0-.94,.03-1.71,.09-2.31,.07-.6,.29-1.07,.67-1.41,.39-.34,1-.51,1.83-.51h4.73Z"/><g><path class="cls-1" d="M262.65,99.48V44.62c0-.94,.05-1.68,.14-2.24,.09-.55,.32-1,.67-1.35,.35-.34,.94-.51,1.78-.51h4.81v58.96h-7.41Z"/><path class="cls-1" d="M280.15,40.52h43.77v5.77h-18.18v48.96c0,1.62-.14,2.74-.43,3.33-.29,.6-1.01,.9-2.16,.9h-4.71V46.29h-18.27v-5.77Z"/></g></svg>